<svg width="638" height="320" viewBox="0 0 638 320" fill="none" xmlns="http://www.w3.org/2000/svg">
<path fill-rule="evenodd" clip-rule="evenodd" d="M40 320H598C620.091 320 638 302.091 638 280V216.548C617.773 205.794 604 184.506 604 160C604 135.494 617.773 114.206 638 103.452V40C638 17.9086 620.038 0 597.947 0H40.0534C17.962 0 0 17.9086 0 40V103.452C20.2272 114.206 34 135.495 34 160C34 184.505 20.2272 205.794 0 216.548V280C0 302.091 17.9086 320 40 320Z" fill="#00AA1F"/>
<path d="M236.311 76.592C236.311 81.84 234.519 85.296 229.399 85.296H216.087V100.528H231.062C232.983 100.528 234.519 100.4 235.927 100.016V158H254.359V68.4H236.311V76.592ZM304.303 96.944C296.367 96.944 290.479 99.376 285.999 103.472L287.023 83.888H329.135V68.4H270.255L267.695 120.88H285.487C288.687 113.456 295.599 111.536 300.591 111.536C309.935 111.536 315.951 118.192 315.951 127.664C315.951 138.288 308.527 143.664 300.719 143.664C291.119 143.664 285.487 137.264 284.591 129.2H266.286C267.055 145.584 279.855 158.768 300.591 158.768C319.151 158.768 334.511 148.272 334.511 127.664C334.511 109.36 322.351 96.944 304.303 96.944ZM348.955 127.536C352.283 147.12 365.851 158.768 384.923 158.768C406.299 158.768 419.355 145.968 420.763 125.488H401.819C400.411 136.368 395.035 143.024 385.563 143.024C376.731 143.024 370.587 137.52 368.155 127.536H383.003L385.179 116.272H367.131C367.003 115.504 367.003 114.096 367.003 112.944V110.384H386.459L388.507 99.12H368.155C370.331 89.136 376.603 83.376 385.563 83.376C394.907 83.376 400.539 90.032 401.819 100.912H420.891C419.483 80.432 406.299 67.632 384.795 67.632C365.723 67.632 352.283 79.536 348.955 99.12H340.251V110.384H348.187C348.059 111.408 348.059 112.304 348.059 113.072C348.059 114.352 348.059 115.632 348.187 116.272H340.251V127.536H348.955Z" fill="white"/>
<path d="M157.747 209.96C157.795 216.776 163.123 221.288 171.667 221.288C179.539 221.288 184.723 216.968 184.771 210.68C184.819 203.912 179.731 202.184 173.971 201.128C168.403 200.072 165.763 199.496 165.763 196.76C165.763 194.168 167.971 192.872 171.043 192.872C174.547 192.872 176.707 194.84 177.043 197.672H184.099C184.003 191.24 178.963 187.112 171.043 187.112C163.459 187.112 158.515 191.336 158.515 197.288C158.515 204.104 163.507 205.928 169.171 206.984C174.787 208.088 177.523 208.664 177.523 211.496C177.523 214.136 175.075 215.576 171.763 215.576C167.635 215.576 165.043 213.32 164.803 210.056L157.747 209.96ZM190.339 213.944C190.339 218.648 192.691 221 197.395 221H202.915V215.288H199.555C197.779 215.288 197.107 214.568 197.107 212.84V202.04H202.771V196.328H197.107V189.416H190.339V196.328H186.259V202.04H190.339V213.944ZM229.427 215.288C228.371 215.288 227.843 215.048 227.843 213.752V205.016C227.843 199.112 223.859 196.04 216.947 196.04C210.419 196.04 206.003 199.208 205.523 204.008H212.051C212.339 202.184 214.115 200.984 216.755 200.984C219.587 200.984 221.171 202.424 221.171 204.632V205.832H216.275C208.883 205.832 204.947 208.808 204.947 214.04C204.947 218.744 208.787 221.288 214.115 221.288C217.955 221.288 220.451 219.704 222.179 216.968C222.131 219.32 223.235 221 226.739 221H230.195V215.288H229.427ZM221.171 210.824C221.123 214.184 218.963 216.392 215.411 216.392C213.155 216.392 211.763 215.288 211.763 213.56C211.763 211.496 213.395 210.344 216.227 210.344H221.171V210.824ZM246.685 196.328C242.845 196.328 240.925 197.816 239.581 200.024L238.957 196.328H232.813V221H239.581V208.904C239.581 205.16 241.117 202.472 245.149 202.472H247.837V196.328H246.685ZM253.714 213.944C253.714 218.648 256.066 221 260.77 221H266.29V215.288H262.93C261.154 215.288 260.482 214.568 260.482 212.84V202.04H266.146V196.328H260.482V189.416H253.714V196.328H249.634V202.04H253.714V213.944ZM287.473 199.736C285.841 197.576 283.345 195.992 279.793 195.992C273.217 195.992 268.369 200.888 268.369 208.424C268.369 216.056 273.217 220.904 279.841 220.856C283.297 220.856 285.745 219.512 287.377 217.448V220.04C287.377 223.88 285.121 225.752 281.329 225.752C278.209 225.752 276.337 224.408 275.713 222.056H268.897C269.233 227.768 273.937 230.888 280.801 230.888C290.257 230.888 294.001 226.376 294.001 220.28V196.328H288.049L287.473 199.736ZM281.329 215.432C277.633 215.432 275.281 212.6 275.281 208.472C275.281 204.344 277.633 201.464 281.329 201.464C285.025 201.464 287.329 204.392 287.329 208.52C287.329 212.6 285.025 215.432 281.329 215.432ZM315.183 208.664C315.183 213.224 313.215 215.672 309.855 215.672C306.495 215.672 305.055 213.512 305.055 209.096V196.328H298.287V210.008C298.287 218.744 302.991 221.288 308.079 221.288C311.583 221.288 313.743 219.944 315.327 218.024L315.951 221H321.951V196.328H315.183V208.664ZM328.62 213.944C328.62 218.648 330.972 221 335.676 221H341.196V215.288H337.836C336.06 215.288 335.388 214.568 335.388 212.84V202.04H341.052V196.328H335.388V189.416H328.62V196.328H324.54V202.04H328.62V213.944ZM358.393 196.04C354.889 196.04 352.681 197.432 351.097 199.352V187.4H344.329V221H351.097V208.328C351.097 204.104 353.161 201.608 356.617 201.608C359.977 201.608 361.609 203.864 361.609 207.896V221H368.377V207.32C368.377 198.968 363.865 196.04 358.393 196.04ZM396.161 215.288C395.105 215.288 394.577 215.048 394.577 213.752V205.016C394.577 199.112 390.593 196.04 383.681 196.04C377.153 196.04 372.737 199.208 372.257 204.008H378.785C379.073 202.184 380.849 200.984 383.489 200.984C386.321 200.984 387.905 202.424 387.905 204.632V205.832H383.009C375.617 205.832 371.681 208.808 371.681 214.04C371.681 218.744 375.521 221.288 380.849 221.288C384.689 221.288 387.185 219.704 388.913 216.968C388.865 219.32 389.969 221 393.473 221H396.929V215.288H396.161ZM387.905 210.824C387.857 214.184 385.697 216.392 382.145 216.392C379.889 216.392 378.497 215.288 378.497 213.56C378.497 211.496 380.129 210.344 382.961 210.344H387.905V210.824ZM413.755 196.04C410.347 196.04 407.947 197.48 406.315 199.448V187.4H399.547V221H405.451L406.123 217.64C407.707 219.752 410.155 221.288 413.707 221.288C420.379 221.288 425.179 216.248 425.179 208.616C425.179 200.792 420.379 196.04 413.755 196.04ZM412.219 215.768C408.523 215.768 406.219 212.84 406.219 208.616C406.219 204.44 408.523 201.56 412.219 201.56C415.915 201.56 418.315 204.44 418.315 208.664C418.315 212.888 415.915 215.768 412.219 215.768ZM441.13 221.288C447.706 221.288 451.978 217.448 452.746 212.648H446.074C445.498 214.952 443.578 216.152 440.842 216.152C437.434 216.152 435.178 214.04 435.034 210.536V210.2H452.938C453.082 209.432 453.13 208.616 453.13 207.896C453.034 200.648 448.042 196.04 440.65 196.04C433.018 196.04 427.978 201.032 427.978 208.712C427.978 216.344 432.922 221.288 441.13 221.288ZM435.178 205.784C435.562 202.856 437.77 201.08 440.698 201.08C443.77 201.08 445.834 202.76 446.314 205.784H435.178ZM470.989 196.04C467.197 196.04 464.941 197.48 463.357 199.4L462.733 196.328H456.829V221H463.597V208.376C463.597 204.104 465.613 201.608 469.117 201.608C472.525 201.608 474.109 203.816 474.109 207.992V221H480.877V207.32C480.877 198.872 476.317 196.04 470.989 196.04Z" fill="white"/>
<path d="M209.721 293.12C211.941 293.12 213.381 292.12 214.061 291.12L214.261 293H216.041V285.34H209.961V287.28H213.841V287.62C213.721 289.88 211.981 291.1 209.821 291.1C207.141 291.1 205.461 289 205.461 286C205.461 283 207.181 280.9 209.841 280.9C211.781 280.9 213.121 281.98 213.541 283.76H215.921C215.501 280.8 213.141 278.88 209.901 278.88C205.741 278.88 203.101 281.74 203.101 286C203.101 290.26 205.801 293.12 209.721 293.12ZM220.962 281.32C221.702 281.32 222.222 280.8 222.222 280.1C222.222 279.4 221.702 278.88 220.962 278.88C220.262 278.88 219.722 279.4 219.722 280.1C219.722 280.8 220.262 281.32 220.962 281.32ZM224.842 281.32C225.562 281.32 226.082 280.8 226.082 280.1C226.082 279.4 225.562 278.88 224.842 278.88C224.142 278.88 223.582 279.4 223.582 280.1C223.582 280.8 224.142 281.32 224.842 281.32ZM225.402 287.88C225.402 290 224.402 291.24 222.762 291.24C221.182 291.24 220.382 290.22 220.382 288.22V282.76H218.222V288.46C218.222 291.96 220.082 293.12 222.262 293.12C223.842 293.12 224.782 292.48 225.422 291.7L225.662 293H227.562V282.76H225.402V287.88ZM229.691 293H231.851V279H229.691V293ZM234.708 290.22C234.708 292.08 235.548 293 237.508 293H239.508V291.1H237.988C237.168 291.1 236.888 290.8 236.888 290V284.66H239.388V282.76H236.888V279.9H234.708V282.76H232.928V284.66H234.708V290.22ZM241.982 281.32C242.722 281.32 243.302 280.78 243.302 280.02C243.302 279.26 242.722 278.72 241.982 278.72C241.242 278.72 240.662 279.26 240.662 280.02C240.662 280.78 241.242 281.32 241.982 281.32ZM240.882 293H243.042V282.76H240.882V293ZM252.98 284.36C252.32 283.34 251.22 282.64 249.62 282.64C246.84 282.64 244.78 284.7 244.78 287.84C244.78 291.1 246.84 293.04 249.62 293.04C251.22 293.04 252.28 292.38 252.96 291.36V292.5C252.96 294.46 251.9 295.36 250.02 295.36C248.5 295.36 247.5 294.7 247.24 293.56H245.04C245.24 295.86 247.14 297.12 249.86 297.12C253.54 297.12 255.1 295.36 255.1 292.58V282.76H253.22L252.98 284.36ZM249.98 291.22C248.18 291.22 247 289.84 247 287.84C247 285.86 248.18 284.46 249.98 284.46C251.78 284.46 252.96 285.86 252.96 287.88C252.96 289.84 251.78 291.22 249.98 291.22ZM267.808 282.64C266.228 282.64 265.168 283.36 264.488 284.28V279H262.328V293H264.208L264.468 291.52C265.108 292.44 266.208 293.12 267.808 293.12C270.608 293.12 272.648 291.02 272.648 287.88C272.648 284.58 270.608 282.64 267.808 282.64ZM267.448 291.3C265.648 291.3 264.468 289.88 264.468 287.86C264.468 285.88 265.648 284.48 267.448 284.48C269.248 284.48 270.448 285.88 270.448 287.88C270.448 289.9 269.248 291.3 267.448 291.3ZM275.478 281.32C276.218 281.32 276.798 280.78 276.798 280.02C276.798 279.26 276.218 278.72 275.478 278.72C274.738 278.72 274.158 279.26 274.158 280.02C274.158 280.78 274.738 281.32 275.478 281.32ZM274.378 293H276.538V282.76H274.378V293ZM278.216 289.62C278.276 291.84 280.156 293.12 282.896 293.12C285.376 293.12 287.236 291.88 287.236 289.92C287.236 287.64 285.336 287.16 282.996 286.88C281.516 286.72 280.536 286.6 280.536 285.64C280.536 284.82 281.376 284.3 282.656 284.3C283.936 284.3 284.816 284.96 284.936 285.9H287.056C286.916 283.8 285.136 282.64 282.616 282.64C280.156 282.62 278.416 283.88 278.416 285.82C278.416 287.94 280.256 288.44 282.596 288.72C284.176 288.92 285.116 289 285.116 290.1C285.116 290.92 284.236 291.44 282.896 291.44C281.336 291.44 280.416 290.68 280.336 289.62H278.216ZM293.647 284.66H299.127L293.407 291.46V293H302.287V291.1H296.307L302.027 284.3V282.76H293.647V284.66ZM310.812 287.88C310.812 290 309.812 291.24 308.172 291.24C306.592 291.24 305.792 290.22 305.792 288.22V282.76H303.632V288.46C303.632 291.96 305.492 293.12 307.672 293.12C309.252 293.12 310.192 292.48 310.832 291.7L311.072 293H312.972V282.76H310.812V287.88ZM326.881 282.64C325.201 282.64 324.041 283.38 323.381 284.5C322.761 283.18 321.561 282.64 320.221 282.64C318.681 282.66 317.801 283.34 317.221 284.1L316.981 282.76H315.101V293H317.261V287.52C317.261 285.7 318.181 284.5 319.661 284.5C321.081 284.5 321.821 285.44 321.821 287.24V293H324.001V287.46C324.001 285.62 324.941 284.5 326.421 284.5C327.821 284.5 328.561 285.44 328.561 287.24V293H330.721V287.1C330.721 283.86 329.001 282.64 326.881 282.64ZM337.176 293H347.096V291.06H340.316L344.036 287.96C345.736 286.54 346.996 285.24 346.996 283.16C346.996 280.6 345.236 278.88 342.096 278.88C339.116 278.88 337.196 280.82 337.196 283.48V283.84H339.416V283.6C339.416 281.86 340.496 280.78 342.096 280.78C343.696 280.78 344.756 281.66 344.756 283.26C344.756 284.6 343.816 285.58 342.556 286.64L337.176 291.22V293ZM355.996 285.72C357.296 285.42 358.416 284.24 358.416 282.6C358.416 280.42 356.536 278.88 353.536 278.88C350.556 278.88 348.676 280.42 348.676 282.6C348.676 284.3 349.796 285.42 351.076 285.74C349.576 286.08 348.296 287.24 348.296 289.18C348.296 291.5 350.236 293.12 353.536 293.12C356.836 293.12 358.796 291.5 358.796 289.18C358.796 287.2 357.496 286.04 355.996 285.72ZM353.536 280.6C355.136 280.6 356.176 281.44 356.176 282.66C356.176 283.9 355.136 284.74 353.536 284.74C351.956 284.74 350.916 283.9 350.916 282.66C350.916 281.44 351.956 280.6 353.536 280.6ZM353.536 291.42C351.776 291.42 350.556 290.42 350.556 289.06C350.556 287.7 351.776 286.72 353.536 286.72C355.316 286.72 356.536 287.7 356.536 289.06C356.536 290.42 355.316 291.42 353.536 291.42ZM359.999 291.76C359.999 292.56 360.579 293.12 361.379 293.12C362.179 293.12 362.779 292.56 362.779 291.76C362.779 290.96 362.179 290.4 361.379 290.4C360.579 290.4 359.999 290.96 359.999 291.76ZM363.395 286.32C363.395 290.54 365.655 293.12 368.915 293.12C372.175 293.12 374.435 290.54 374.435 286.32V285.68C374.435 281.62 372.175 278.88 368.915 278.88C365.655 278.88 363.395 281.62 363.395 285.68V286.32ZM372.195 286.24C372.195 289.38 370.875 291.18 368.915 291.18C366.955 291.18 365.635 289.38 365.635 286.24V285.76C365.635 282.64 366.955 280.82 368.915 280.82C370.875 280.82 372.195 282.64 372.195 285.76V286.24ZM383.613 285.72C384.913 285.42 386.033 284.24 386.033 282.6C386.033 280.42 384.153 278.88 381.153 278.88C378.173 278.88 376.293 280.42 376.293 282.6C376.293 284.3 377.413 285.42 378.693 285.74C377.193 286.08 375.913 287.24 375.913 289.18C375.913 291.5 377.853 293.12 381.153 293.12C384.453 293.12 386.413 291.5 386.413 289.18C386.413 287.2 385.113 286.04 383.613 285.72ZM381.153 280.6C382.753 280.6 383.793 281.44 383.793 282.66C383.793 283.9 382.753 284.74 381.153 284.74C379.573 284.74 378.533 283.9 378.533 282.66C378.533 281.44 379.573 280.6 381.153 280.6ZM381.153 291.42C379.393 291.42 378.173 290.42 378.173 289.06C378.173 287.7 379.393 286.72 381.153 286.72C382.933 286.72 384.153 287.7 384.153 289.06C384.153 290.42 382.933 291.42 381.153 291.42ZM387.616 291.76C387.616 292.56 388.196 293.12 388.996 293.12C389.796 293.12 390.396 292.56 390.396 291.76C390.396 290.96 389.796 290.4 388.996 290.4C388.196 290.4 387.616 290.96 387.616 291.76ZM391.669 293H401.589V291.06H394.809L398.529 287.96C400.229 286.54 401.489 285.24 401.489 283.16C401.489 280.6 399.729 278.88 396.589 278.88C393.609 278.88 391.689 280.82 391.689 283.48V283.84H393.909V283.6C393.909 281.86 394.989 280.78 396.589 280.78C398.189 280.78 399.249 281.66 399.249 283.26C399.249 284.6 398.309 285.58 397.049 286.64L391.669 291.22V293ZM402.946 286.32C402.946 290.54 405.206 293.12 408.466 293.12C411.726 293.12 413.986 290.54 413.986 286.32V285.68C413.986 281.62 411.726 278.88 408.466 278.88C405.206 278.88 402.946 281.62 402.946 285.68V286.32ZM411.746 286.24C411.746 289.38 410.426 291.18 408.466 291.18C406.506 291.18 405.186 289.38 405.186 286.24V285.76C405.186 282.64 406.506 280.82 408.466 280.82C410.426 280.82 411.746 282.64 411.746 285.76V286.24ZM415.204 293H425.124V291.06H418.344L422.064 287.96C423.764 286.54 425.024 285.24 425.024 283.16C425.024 280.6 423.264 278.88 420.124 278.88C417.144 278.88 415.224 280.82 415.224 283.48V283.84H417.444V283.6C417.444 281.86 418.524 280.78 420.124 280.78C421.724 280.78 422.784 281.66 422.784 283.26C422.784 284.6 421.844 285.58 420.584 286.64L415.204 291.22V293ZM426.141 293H436.061V291.06H429.281L433.001 287.96C434.701 286.54 435.961 285.24 435.961 283.16C435.961 280.6 434.201 278.88 431.061 278.88C428.081 278.88 426.161 280.82 426.161 283.48V283.84H428.381V283.6C428.381 281.86 429.461 280.78 431.061 280.78C432.661 280.78 433.721 281.66 433.721 283.26C433.721 284.6 432.781 285.58 431.521 286.64L426.141 291.22V293Z" fill="white"/>
</svg>
